<svg xmlns="http://www.w3.org/2000/svg" viewBox="0 0 512 512">
  <defs>
    <linearGradient id="grad1" x1="0%" y1="0%" x2="100%" y2="100%">
      <stop offset="0%" style="stop-color:#2563eb;stop-opacity:1" />
      <stop offset="100%" style="stop-color:#4f46e5;stop-opacity:1" />
    </linearGradient>
  </defs>
  <rect width="512" height="512" rx="120" fill="url(#grad1)" />
  <path d="M352 176h-64v-32a16 16 0 0 0-16-16h-32a16 16 0 0 0-16 16v32h-48a16 16 0 0 0-16 16v48a16 16 0 0 0 16 16h112v48H176a16 16 0 0 0-16 16v48a16 16 0 0 0 16 16h64v32a16 16 0 0 0 16 16h32a16 16 0 0 0 16-16v-32h48a16 16 0 0 0 16-16v-48a16 16 0 0 0-16-16H240v-48h112a16 16 0 0 0 16-16v-48a16 16 0 0 0-16-16z" fill="#ffffff" />
</svg>
